<mxfile host="app.diagrams.net" agent="Mozilla/5.0 (X11; Ubuntu; Linux x86_64; rv:132.0) Gecko/20100101 Firefox/132.0" version="26.0.9">
  <diagram name="Page-1" id="jpwErkO3NPmZEscIHDMV">
    <mxGraphModel dx="1605" dy="2035" grid="1" gridSize="10" guides="1" tooltips="1" connect="1" arrows="1" fold="1" page="1" pageScale="1" pageWidth="850" pageHeight="1100" math="0" shadow="0">
      <root>
        <mxCell id="0" />
        <mxCell id="1" parent="0" />
        <mxCell id="PJLO7cbqrgjI2s5Bg94Z-3" value="" style="edgeStyle=orthogonalEdgeStyle;rounded=0;orthogonalLoop=1;jettySize=auto;html=1;" edge="1" parent="1" source="PJLO7cbqrgjI2s5Bg94Z-1" target="PJLO7cbqrgjI2s5Bg94Z-2">
          <mxGeometry relative="1" as="geometry" />
        </mxCell>
        <mxCell id="PJLO7cbqrgjI2s5Bg94Z-1" value="start" style="ellipse;whiteSpace=wrap;html=1;" vertex="1" parent="1">
          <mxGeometry x="380" y="-150" width="120" height="80" as="geometry" />
        </mxCell>
        <mxCell id="PJLO7cbqrgjI2s5Bg94Z-5" value="" style="edgeStyle=orthogonalEdgeStyle;rounded=0;orthogonalLoop=1;jettySize=auto;html=1;" edge="1" parent="1" source="PJLO7cbqrgjI2s5Bg94Z-2" target="PJLO7cbqrgjI2s5Bg94Z-4">
          <mxGeometry relative="1" as="geometry" />
        </mxCell>
        <mxCell id="PJLO7cbqrgjI2s5Bg94Z-2" value="read a" style="shape=parallelogram;perimeter=parallelogramPerimeter;whiteSpace=wrap;html=1;fixedSize=1;" vertex="1" parent="1">
          <mxGeometry x="380" y="70" width="120" height="60" as="geometry" />
        </mxCell>
        <mxCell id="PJLO7cbqrgjI2s5Bg94Z-7" value="" style="edgeStyle=orthogonalEdgeStyle;rounded=0;orthogonalLoop=1;jettySize=auto;html=1;" edge="1" parent="1" source="PJLO7cbqrgjI2s5Bg94Z-4" target="PJLO7cbqrgjI2s5Bg94Z-6">
          <mxGeometry relative="1" as="geometry" />
        </mxCell>
        <mxCell id="PJLO7cbqrgjI2s5Bg94Z-4" value="read b" style="shape=parallelogram;perimeter=parallelogramPerimeter;whiteSpace=wrap;html=1;fixedSize=1;" vertex="1" parent="1">
          <mxGeometry x="380" y="150" width="120" height="60" as="geometry" />
        </mxCell>
        <mxCell id="PJLO7cbqrgjI2s5Bg94Z-24" style="edgeStyle=orthogonalEdgeStyle;rounded=0;orthogonalLoop=1;jettySize=auto;html=1;" edge="1" parent="1" source="PJLO7cbqrgjI2s5Bg94Z-6" target="PJLO7cbqrgjI2s5Bg94Z-16">
          <mxGeometry relative="1" as="geometry" />
        </mxCell>
        <mxCell id="PJLO7cbqrgjI2s5Bg94Z-6" value="cont &amp;gt; b" style="rhombus;whiteSpace=wrap;html=1;" vertex="1" parent="1">
          <mxGeometry x="400" y="310" width="80" height="80" as="geometry" />
        </mxCell>
        <mxCell id="PJLO7cbqrgjI2s5Bg94Z-8" value="&lt;div&gt;ris = 0 &lt;br&gt;&lt;/div&gt;" style="rounded=0;whiteSpace=wrap;html=1;" vertex="1" parent="1">
          <mxGeometry x="380" y="-10" width="120" height="60" as="geometry" />
        </mxCell>
        <mxCell id="PJLO7cbqrgjI2s5Bg94Z-9" value="end" style="ellipse;whiteSpace=wrap;html=1;" vertex="1" parent="1">
          <mxGeometry x="950" y="320" width="120" height="80" as="geometry" />
        </mxCell>
        <mxCell id="PJLO7cbqrgjI2s5Bg94Z-29" style="edgeStyle=orthogonalEdgeStyle;rounded=0;orthogonalLoop=1;jettySize=auto;html=1;" edge="1" parent="1" source="PJLO7cbqrgjI2s5Bg94Z-11">
          <mxGeometry relative="1" as="geometry">
            <mxPoint x="60" y="350" as="targetPoint" />
          </mxGeometry>
        </mxCell>
        <mxCell id="PJLO7cbqrgjI2s5Bg94Z-11" value="cont += 1" style="whiteSpace=wrap;html=1;" vertex="1" parent="1">
          <mxGeometry x="660" y="690" width="120" height="60" as="geometry" />
        </mxCell>
        <mxCell id="PJLO7cbqrgjI2s5Bg94Z-14" value="cont = a" style="rounded=0;whiteSpace=wrap;html=1;" vertex="1" parent="1">
          <mxGeometry x="380" y="230" width="120" height="60" as="geometry" />
        </mxCell>
        <mxCell id="PJLO7cbqrgjI2s5Bg94Z-19" value="" style="edgeStyle=orthogonalEdgeStyle;rounded=0;orthogonalLoop=1;jettySize=auto;html=1;" edge="1" parent="1" source="PJLO7cbqrgjI2s5Bg94Z-16" target="PJLO7cbqrgjI2s5Bg94Z-18">
          <mxGeometry relative="1" as="geometry" />
        </mxCell>
        <mxCell id="PJLO7cbqrgjI2s5Bg94Z-20" value="false" style="edgeLabel;html=1;align=center;verticalAlign=middle;resizable=0;points=[];" vertex="1" connectable="0" parent="PJLO7cbqrgjI2s5Bg94Z-19">
          <mxGeometry x="0.2154" y="-4" relative="1" as="geometry">
            <mxPoint as="offset" />
          </mxGeometry>
        </mxCell>
        <mxCell id="PJLO7cbqrgjI2s5Bg94Z-23" value="" style="edgeStyle=orthogonalEdgeStyle;rounded=0;orthogonalLoop=1;jettySize=auto;html=1;" edge="1" parent="1" source="PJLO7cbqrgjI2s5Bg94Z-16" target="PJLO7cbqrgjI2s5Bg94Z-22">
          <mxGeometry relative="1" as="geometry" />
        </mxCell>
        <mxCell id="PJLO7cbqrgjI2s5Bg94Z-38" value="&lt;div&gt;true&lt;/div&gt;&lt;div&gt;&lt;br&gt;&lt;/div&gt;" style="edgeLabel;html=1;align=center;verticalAlign=middle;resizable=0;points=[];" vertex="1" connectable="0" parent="PJLO7cbqrgjI2s5Bg94Z-23">
          <mxGeometry x="0.0147" y="-5" relative="1" as="geometry">
            <mxPoint as="offset" />
          </mxGeometry>
        </mxCell>
        <mxCell id="PJLO7cbqrgjI2s5Bg94Z-16" value="(a &amp;gt; 0 and b &amp;gt; 0) and ( a %1 == 0 and b % 1 == 0 ) and (a &amp;lt; b)" style="rhombus;whiteSpace=wrap;html=1;" vertex="1" parent="1">
          <mxGeometry x="340" y="520" width="200" height="160" as="geometry" />
        </mxCell>
        <mxCell id="PJLO7cbqrgjI2s5Bg94Z-34" style="edgeStyle=orthogonalEdgeStyle;rounded=0;orthogonalLoop=1;jettySize=auto;html=1;" edge="1" parent="1" source="PJLO7cbqrgjI2s5Bg94Z-18">
          <mxGeometry relative="1" as="geometry">
            <mxPoint x="160" y="1060" as="targetPoint" />
          </mxGeometry>
        </mxCell>
        <mxCell id="PJLO7cbqrgjI2s5Bg94Z-18" value="read errore " style="shape=parallelogram;perimeter=parallelogramPerimeter;whiteSpace=wrap;html=1;fixedSize=1;" vertex="1" parent="1">
          <mxGeometry x="100" y="570" width="120" height="60" as="geometry" />
        </mxCell>
        <mxCell id="PJLO7cbqrgjI2s5Bg94Z-25" value="" style="edgeStyle=orthogonalEdgeStyle;rounded=0;orthogonalLoop=1;jettySize=auto;html=1;" edge="1" parent="1" source="PJLO7cbqrgjI2s5Bg94Z-22" target="PJLO7cbqrgjI2s5Bg94Z-11">
          <mxGeometry relative="1" as="geometry" />
        </mxCell>
        <mxCell id="PJLO7cbqrgjI2s5Bg94Z-22" value="ris = ris + cont" style="whiteSpace=wrap;html=1;" vertex="1" parent="1">
          <mxGeometry x="660" y="570" width="120" height="60" as="geometry" />
        </mxCell>
        <mxCell id="PJLO7cbqrgjI2s5Bg94Z-30" value="" style="endArrow=classic;html=1;rounded=0;entryX=0;entryY=0.5;entryDx=0;entryDy=0;" edge="1" parent="1" target="PJLO7cbqrgjI2s5Bg94Z-6">
          <mxGeometry width="50" height="50" relative="1" as="geometry">
            <mxPoint x="60" y="350" as="sourcePoint" />
            <mxPoint x="110" y="300" as="targetPoint" />
          </mxGeometry>
        </mxCell>
        <mxCell id="PJLO7cbqrgjI2s5Bg94Z-37" value="" style="edgeStyle=orthogonalEdgeStyle;rounded=0;orthogonalLoop=1;jettySize=auto;html=1;" edge="1" parent="1" source="PJLO7cbqrgjI2s5Bg94Z-31" target="PJLO7cbqrgjI2s5Bg94Z-9">
          <mxGeometry relative="1" as="geometry" />
        </mxCell>
        <mxCell id="PJLO7cbqrgjI2s5Bg94Z-31" value="" style="ellipse;whiteSpace=wrap;html=1;aspect=fixed;" vertex="1" parent="1">
          <mxGeometry x="780" y="320" width="80" height="80" as="geometry" />
        </mxCell>
        <mxCell id="PJLO7cbqrgjI2s5Bg94Z-33" style="edgeStyle=orthogonalEdgeStyle;rounded=0;orthogonalLoop=1;jettySize=auto;html=1;entryX=0.048;entryY=0.371;entryDx=0;entryDy=0;entryPerimeter=0;" edge="1" parent="1" source="PJLO7cbqrgjI2s5Bg94Z-6" target="PJLO7cbqrgjI2s5Bg94Z-31">
          <mxGeometry relative="1" as="geometry" />
        </mxCell>
        <mxCell id="PJLO7cbqrgjI2s5Bg94Z-35" value="" style="endArrow=classic;html=1;rounded=0;" edge="1" parent="1">
          <mxGeometry width="50" height="50" relative="1" as="geometry">
            <mxPoint x="160" y="1060" as="sourcePoint" />
            <mxPoint x="840" y="1060" as="targetPoint" />
          </mxGeometry>
        </mxCell>
        <mxCell id="PJLO7cbqrgjI2s5Bg94Z-36" value="" style="endArrow=classic;html=1;rounded=0;" edge="1" parent="1">
          <mxGeometry width="50" height="50" relative="1" as="geometry">
            <mxPoint x="840" y="1070" as="sourcePoint" />
            <mxPoint x="840" y="410" as="targetPoint" />
          </mxGeometry>
        </mxCell>
      </root>
    </mxGraphModel>
  </diagram>
</mxfile>
